Coordinates
version=1
nRows=22
nColumns=24
inDegrees=yes

Units are S.I. units (second, meters, Newtons, ...)
Angles are in degrees.

endheader
time	pelvis_tilt	pelvis_list	pelvis_rotation	pelvis_tx	pelvis_ty	pelvis_tz	hip_flexion_r	hip_adduction_r	hip_rotation_r	knee_angle_r	ankle_angle_r	subtalar_angle_r	mtp_angle_r	hip_flexion_l	hip_adduction_l	hip_rotation_l	knee_angle_l	ankle_angle_l	subtalar_angle_l	mtp_angle_l	lumbar_extension	lumbar_bending	lumbar_rotation
      1.42116667	      3.91790750	      2.77193654	     -1.39435415	      0.21883109	      1.03675639	      0.32012748	     13.52425878	     -6.45596455	     -8.20456409	    -68.73832715	    -10.87146756	    -13.00738826	      4.88678968	      3.05395123	      8.94284662	      5.72417158	    -10.10975447	      4.09976633	    -13.95519380	      0.95404913	     -7.12365437	     -5.90437258	      2.98793251
      1.42533333	      3.97328248	      2.61475514	     -1.44430667	      0.22355789	      1.03752619	      0.32002001	     14.04038398	     -6.18762751	     -7.93976955	    -68.50647906	    -10.38361765	    -12.97663606	      4.79630723	      2.58793761	      8.77603020	      5.73170122	     -9.89350557	      4.21978028	    -13.90486081	      0.90137885	     -7.24519764	     -5.71019690	      2.98470685
      1.42950000	      3.99247404	      2.47199458	     -1.48575998	      0.22830990	      1.03820231	      0.31990519	     14.58197420	     -5.93434326	     -7.68993400	    -68.22838596	     -9.95965926	    -13.01449237	      4.75810576	      2.15633280	      8.62526842	      5.75099469	     -9.66770018	      4.34354514	    -13.87603936	      0.87646037	     -7.28678916	     -5.54143247	      2.95845769
      1.43366667	      4.04597270	      2.31231384	     -1.50785609	      0.23300153	      1.03892182	      0.31976202	     15.06894216	     -5.66447260	     -7.45533372	    -67.90571689	     -9.39503615	    -12.78970561	      2.80900817	      1.70549575	      8.45569708	      5.74374332	     -9.47568399	      4.47532356	    -13.75324386	     -0.29065365	     -7.43888694	     -5.33869984	      2.81644800
      1.43783333	      4.06246781	      2.16613146	     -1.50537504	      0.23771577	      1.03953812	      0.31958594	     15.57385226	     -5.41355768	     -7.25699686	    -67.52208814	     -8.97826611	    -12.80233534	      2.81343080	      1.28599128	      8.30546882	      5.81887686	     -9.27115932	      4.61906688	    -13.74789830	     -0.29269231	     -7.49173361	     -5.14976877	      2.83003141
      1.44200000	      4.11125117	      2.00560040	     -1.48201631	      0.24238095	      1.04018830	      0.31937202	     16.02292222	     -5.15323208	     -7.07837021	    -67.08611975	     -8.48620714	    -12.60402169	      2.81704457	      0.84303662	      8.14082136	      5.90027723	     -9.08565587	      4.71476712	    -13.72898041	     -0.30552981	     -7.64011756	     -4.94138700	      2.81281644
      1.44616667	      4.15979478	      1.86923390	     -1.45733322	      0.24707726	      1.04080369	      0.31916472	     16.45718419	     -4.92058969	     -6.90275110	    -66.60829322	     -7.99204700	    -12.42243324	      2.81758950	      0.38474041	      8.00136551	      5.99058155	     -8.86514055	      4.81641338	    -13.71114299	     -0.33003888	     -7.75056656	     -4.77019773	      2.73571475
      1.45033333	      4.18363054	      1.71874089	     -1.40727981	      0.25174239	      1.04135388	      0.31893032	     16.89644772	     -4.67095094	     -6.75110886	    -66.07071022	     -7.51593232	    -12.29313347	      2.82427903	     -0.02463285	      7.84510186	      6.07048429	     -8.68888236	      4.91812278	    -13.69899173	     -0.34805731	     -7.84540921	     -4.57392955	      2.66799250
      1.45450000	      4.23348511	      1.58859349	     -1.34492865	      0.25641062	      1.04189775	      0.31866977	     17.29211264	     -4.45555643	     -6.61688965	    -65.49711473	     -6.99507237	    -12.06662120	      2.83314185	     -0.47757644	      7.71256707	      6.19233010	     -8.47777186	      5.02310807	    -13.68097669	     -0.38146024	     -7.96408465	     -4.40388441	      2.54243271
      1.45866667	      4.24899407	      1.44270218	     -1.25994731	      0.26105549	      1.04236769	      0.31837983	     17.70143803	     -4.22134417	     -6.50302296	    -64.86047843	     -6.49409748	    -11.91142771	      2.84627531	     -0.86834131	      7.56128552	      6.30148675	     -8.31876570	      5.12567311	    -13.67114522	     -0.40548124	     -8.04669592	     -4.21197187	      2.45057905
      1.46283333	      4.26620484	      1.30318097	     -1.15858891	      0.26570277	      1.04280945	      0.31806448	     18.08927675	     -4.00064655	     -6.40496239	    -64.17674447	     -5.96451412	    -11.70482085	      2.86410451	     -1.26580550	      7.41626632	      6.43619619	     -8.14624078	      5.23366263	    -13.66067413	     -0.43307722	     -8.12965073	     -4.02494539	      2.32554678
      1.46700000	      4.30555504	      1.19484893	     -1.05401807	      0.27034798	      1.04322031	      0.31773803	     18.44311993	     -3.82287550	     -6.31165164	    -63.46494386	     -5.39964207	    -11.44839374	      2.89013875	     -1.69780646	      7.30532774	      6.59526741	     -7.94720803	      5.32823235	    -13.66373248	     -0.48476870	     -8.23773378	     -3.87902594	      2.13140824
      1.47116667	      4.31606054	      1.05358617	     -0.91669099	      0.27497475	      1.04359135	      0.31737105	     18.79442662	     -3.60895015	     -6.24855771	    -62.67150707	     -4.88169325	    -11.28261406	      2.91307245	     -2.07166526	      7.15567863	      6.74252009	     -7.80499480	      5.43704639	    -13.66269379	     -0.51556108	     -8.31410768	     -3.68159650	      2.01748273
      1.47533333	      4.33846159	      0.95118958	     -0.78179147	      0.27960659	      1.04391438	      0.31699776	     19.12653536	     -3.44750533	     -6.18503924	    -61.85811256	     -4.32141269	    -11.03378056	      2.94736723	     -2.47678020	      7.04840545	      6.92484993	     -7.61795335	      5.53684071	    -13.66734746	     -0.56644940	     -8.40324863	     -3.54177886	      1.80795903
      1.47950000	      4.33676194	      0.82194932	     -0.61878793	      0.28421935	      1.04419556	      0.31659602	     19.45355633	     -3.25783302	     -6.15015161	    -60.96842489	     -3.80262567	    -10.87963190	      2.97582645	     -2.82792918	      6.90824783	      7.09333179	     -7.49009159	      5.64533076	    -13.67141586	     -0.60135963	     -8.46640915	     -3.35440493	      1.66947497
      1.48366667	      4.35325338	      0.72934243	     -0.45761562	      0.28884810	      1.04443567	      0.31618638	     19.75060692	     -3.11637739	     -6.11085333	    -60.05341294	     -3.26026518	    -10.65269838	      3.01648393	     -3.21880116	      6.80722637	      7.29699905	     -7.31676796	      5.74627385	    -13.68281421	     -0.65810935	     -8.54474794	     -3.22349764	      1.42945418
      1.48783333	      4.32251842	      0.61440347	     -0.27245912	      0.29346165	      1.04460542	      0.31574809	     20.07054842	     -2.95171235	     -6.09625319	    -59.06638366	     -2.77591863	    -10.54195683	      3.04486427	     -3.52880185	      6.67938528	      7.48019692	     -7.20467761	      5.85830889	    -13.68546626	     -0.69236901	     -8.57263392	     -3.04945918	      1.28795421
      1.49200000	      4.36241302	      0.52946134	     -0.09113205	      0.29807630	      1.04482430	      0.31531898	     20.29821174	     -2.82643537	     -6.08073890	    -58.04454297	     -2.26285621	    -10.37388766	      3.09622597	     -3.94069380	      6.58200426	      7.70292837	     -7.03497003	      5.93789552	    -13.72072249	     -0.77685274	     -8.69227309	     -2.92808176	      0.98746593
      1.49616667	      4.32716781	      0.42924312	      0.10602446	      0.30270344	      1.04491084	      0.31486738	     20.58255371	     -2.68677141	     -6.08128658	    -56.95868827	     -1.84549876	    -10.28688669	      3.12222941	     -4.24397797	      6.46563779	      7.89916509	     -6.92630898	      6.06875919	    -13.71158928	     -0.81176654	     -8.69489593	     -2.77414078	      0.85877999
      1.50033333	      4.32445296	      0.35132992	      0.30762714	      0.30734168	      1.04501177	      0.31440848	     20.81174897	     -2.57881469	     -6.08959369	    -55.83278269	     -1.41353267	    -10.18183600	      3.16567660	     -4.60185179	      6.37111531	      8.13676084	     -6.77412703	      6.16120684	    -13.74166578	     -0.89494172	     -8.76393466	     -2.65695604	      0.54761167
      1.50450000	      4.30466543	      0.27046476	      0.51409422	      0.31197807	      1.04504149	      0.31394914	     21.03882790	     -2.47224862	     -6.11423846	    -54.65153441	     -1.05871648	    -10.12308161	      3.19426212	     -4.92634055	      6.27080265	      8.34787693	     -6.65289034	      6.29051529	    -13.75412202	     -0.95546678	     -8.78606603	     -2.53432738	      0.35538960
      1.50866667	      4.26060501	      0.19454998	      0.72667782	      0.31662310	      1.04500925	      0.31349171	     21.26974580	     -2.37010039	     -6.13735618	    -53.41945067	     -0.73583256	    -10.11175612	      3.21839623	     -5.22063155	      6.17387467	      8.57240631	     -6.54061294	      6.40652328	    -13.76622399	     -1.02151714	     -8.78885932	     -2.41398422	      0.12018909
